<svg xmlns="http://www.w3.org/2000/svg" width="82" height="24" viewBox="0 0 82 24" role="img" aria-label="Apply with Apply Guy">
  <rect width="82" height="24" rx="6" fill="#C26300"/>
  <path d="M1 6a5 5 0 0 1 5-5h70a5 5 0 0 1 5 5" fill="none" stroke="#FFFFFF" stroke-opacity=".18"/>
  <svg x="6" y="5" width="14" height="14" viewBox="209 224 800 800">
<path d="M0 0 C19.8 15.9 30.8 37.2 33.8 62.3 C34.5 75.1 33.2 87.4 31.6 100 C28.7 123.7 28.7 123.7 33 131 C36.5 133.7 40.8 133.5 45 133 C46.5 132.5 48.1 132 49.6 131.4 C53.8 129.9 56.6 129.8 61 131 C65.3 133.3 68.2 135.4 70 140 C70.7 145.3 71 150.3 68.1 154.9 C62.7 161.2 53.9 163.1 46 164 C32.9 164.8 22.3 163.6 12 155 C9 151.9 5.9 148.9 4 145 C0.2 145.6 -1.9 147.3 -4.8 149.6 C-23.6 163.6 -47.9 168.6 -71 165.5 C-95.4 161.1 -116.8 148.8 -131.5 128.7 C-145.9 107.9 -151.4 81.8 -146.9 56.8 C-141.6 32.2 -127.9 10.5 -106.9 -3.6 C-73.9 -23.6 -31.1 -24.3 0 0 Z M-100 32 C-100.6 32.5 -101.1 33.1 -101.7 33.6 C-112.8 45.2 -116.5 61.5 -116.3 77 C-115.9 93.2 -109.6 107.9 -98.1 119.3 C-86.5 129.9 -70.4 135.5 -54.9 135.2 C-38.7 134 -25.2 127.6 -14 116 C-13.4 115.5 -12.9 114.9 -12.3 114.4 C-1.4 103.1 2.5 86.9 2.3 71.7 C1.8 55 -4.3 40.4 -16.1 28.6 C-25.9 19.7 -38.7 13.7 -52 13 C-52.6 12.9 -53.3 12.9 -54 12.8 C-71.8 12 -87.7 19.4 -100 32 Z " fill="#FFFFFF" transform="translate(748,274)"/>
<path d="M0 0 C0.5 0.1 0.5 0.1 3 0.6 C28.4 5.7 52.6 14 76 25 C76.4 25.2 76.4 25.2 78.7 26.3 C94.7 33.8 109.9 42.8 125 52 C126.1 52.7 127.2 53.4 128.4 54.1 C139.8 61 151.1 68 162.3 75.2 C171.9 81.4 181.7 87.2 191.7 92.7 C193.8 93.9 195.8 95.1 197.9 96.2 C222 109.8 250.8 119.2 278.4 112.5 C297.4 106.9 314.3 95.6 324.9 78.7 C326.9 74.9 327.5 71.5 328 67.3 C328.7 61.5 329.5 58.8 334 55 C338.6 52.2 342.5 51.4 347.7 52.2 C352.9 54 356.7 57.9 359.5 62.5 C362 75 355.3 87.5 349 98 C345.7 102.9 341.9 107.5 338 112 C337.7 112.4 337.7 112.4 336 114.3 C319.6 131.9 293.5 144.9 269.3 146.1 C227.9 147.5 194.7 132.8 159.6 111.9 C158 111 158 111 157 111 C157 111.6 157.1 112.2 157.1 112.8 C160.2 175.2 150.3 242 113.7 294.3 C112 297 112 297 112 300 C112.6 300.3 113.1 300.5 113.7 300.8 C138.7 312.9 161.8 327 183 345 C184.1 345.9 185.2 346.8 186.2 347.7 C198 357.5 209.1 368.2 219 380 C219.8 380.9 220.6 381.8 221.4 382.7 C241.6 405.9 257.6 432.4 271 460 C271.7 461.3 272.3 462.7 273 464 C278.5 475.1 282.9 486.4 287 498 C291.1 496.1 293.8 493.3 296.9 490 C312.8 473.7 334.3 461.2 357.6 460.6 C363.2 460.6 367.2 461.9 371.8 465.3 C375.3 470.2 375.3 475 374.6 480.8 C370.5 503.4 357.8 523.1 342.2 539.7 C340 542 340 542 337.6 545.1 C326.6 557.5 305.7 573.6 288.4 575.2 C282.2 575.4 277.8 575.2 273 571 C267.6 564.7 266.4 557.3 264.8 549.4 C253.7 498 230.6 449.1 198 408 C197.3 407.1 196.6 406.2 195.9 405.3 C186.3 393.3 175.7 382 164 372 C163 371.2 162.1 370.3 161.1 369.4 C143.1 353.7 112.1 327.5 87.5 324.7 C84.4 325.1 83.1 326 80.7 328 C59.5 343.5 35.7 347.5 10 347 C9.8 347.8 9.5 348.7 9.3 349.5 C7.8 353.6 5.8 356.9 3.5 360.6 C3.1 361.3 2.6 362 2.1 362.7 C-16 390.8 -40.8 412.6 -74 420 C-113.9 428 -156.2 414.8 -190.1 393.8 C-192.6 392.7 -194.3 392.7 -197 393 C-198.9 394.3 -198.9 394.3 -200.7 396.1 C-201.3 396.8 -202 397.4 -202.7 398.1 C-203.4 398.8 -204 399.6 -204.8 400.3 C-205.5 401 -206.2 401.8 -206.9 402.5 C-218.1 414.1 -228.2 426.9 -236 441 C-225.5 438.6 -216.9 433.6 -208.8 426.6 C-205.7 424 -203.6 422.5 -199.6 422.3 C-196 423 -196 423 -194.1 424.2 C-192.6 426.7 -192.1 428.1 -192 431 C-199.1 447.3 -217.8 456 -233.4 462.4 C-241.3 465.2 -249.6 466.3 -258 465 C-261.2 463.2 -263.4 461.9 -265.4 458.9 C-269.8 438.3 -257.3 415.6 -248 398 C-247.8 397.7 -247.8 397.7 -247.1 396.2 C-238.8 380.5 -226.3 360.1 -210 352 C-202.6 349.8 -196.6 351.4 -190 355 C-186 357.4 -182.1 359.9 -178.2 362.3 C-149.5 380.6 -114 395 -79.4 388 C-65.6 384.6 -53.4 377.6 -43 368 C-42.4 367.5 -41.8 366.9 -41.1 366.4 C-32.6 358.5 -22.5 345.5 -20 334 C-20.4 333.9 -20.4 333.9 -22.1 333.3 C-25.6 331.7 -28.1 329.6 -30.9 327 C-31.4 326.5 -31.9 326 -32.5 325.5 C-45.7 312.9 -52.8 295.3 -53.5 277.2 C-53.6 266.6 -52.4 255.9 -45.9 247.2 C-42.5 243.9 -39.2 242.6 -34.5 242 C-29.7 242 -26 243.2 -22.4 246.4 C-19.4 249.9 -18.1 252.7 -17.8 257.3 C-18 261.3 -19.1 263.5 -21 267 C-23.6 277.2 -21.2 286.9 -16.1 295.8 C-9.3 306.2 1.2 311.2 13 314 C33.1 315.8 51.2 311.2 67.1 298.4 C68.7 297 70.4 295.5 72 294 C72.6 293.5 73.2 292.9 73.8 292.4 C92.7 275 103.4 248.6 111.8 225 C112.1 224.3 112.3 223.6 112.6 222.9 C113 221 113 221 112 218 C111.6 218.3 111.6 218.3 109.7 219.9 C84.4 240.2 55.4 249.8 22.8 246.8 C18.7 246.2 14.9 245.2 11 244 C10.4 243.8 9.7 243.6 9.1 243.4 C-5.1 238.9 -16.3 231.5 -27 221 C-27.6 220.4 -28.3 219.8 -28.9 219.1 C-45.5 201.5 -50.8 177.3 -50.3 153.8 C-48.9 119.3 -29.6 89.7 -5 66.8 C3.5 59.2 20.4 45 32 45 C32 44 32 43 32 42 C31.4 41.8 30.8 41.7 30.2 41.5 C25.9 40.4 21.6 39.2 17.3 37.8 C1.2 32.7 -16 29.5 -33 29 C-33.7 29 -34.4 28.9 -35.2 28.9 C-83.6 27.3 -137.7 41.7 -174 75 C-174.5 75.5 -175 75.9 -175.5 76.4 C-184.7 84.9 -191.6 92.5 -193.5 105.4 C-194.6 111 -197.5 114.8 -201.9 118.4 C-208.6 121.9 -214.9 123.4 -222.4 121.3 C-229.1 118.7 -233.3 114.6 -236.4 108 C-238.4 98.2 -235 90 -230 81.6 C-225.4 74.8 -219.8 68.9 -214 63 C-213.7 62.7 -213.7 62.7 -212.3 61.3 C-208.2 57.1 -203.9 53.4 -199.2 49.8 C-198.5 49.3 -197.8 48.7 -197 48.1 C-177.1 33.2 -155.4 21.6 -132 13 C-131.2 12.7 -130.3 12.4 -129.5 12.1 C-115 6.8 -100.2 3 -85 0 C-84.1 -0.2 -83.3 -0.4 -82.4 -0.5 C-56.4 -5.7 -25.9 -5.4 0 0 Z M2.9 103.6 C-11.7 121.8 -20.8 144.5 -18.5 168.1 C-16.7 181.3 -10.9 194.2 -0.6 203.1 C13.7 213.6 29.3 218.1 47.1 215.7 C64.9 212.8 79.5 204.8 93 193 C93.7 192.4 94.3 191.9 95 191.3 C109.3 178.2 118.3 159.5 123 141 C123.2 140.3 123.4 139.5 123.6 138.8 C126.2 121.4 123.8 104.8 114 90 C105.6 79 92.6 72 79 70 C48.8 67.2 22.6 81.1 2.9 103.6 Z M308.1 504.7 C300.6 512.4 291.8 524.5 291.8 535.6 C291.8 536.7 291.9 537.8 292 539 C297 539.7 299.9 537.4 303.7 534.6 C304.3 534.1 304.9 533.7 305.6 533.2 C311 529.1 316.1 524.7 321 520 C321.7 519.3 322.5 518.7 323.2 518 C332.2 509.5 342.1 497.5 347 486 C346.8 485.5 346.8 485.5 346 483 C332.3 483 317.3 495.7 308.1 504.7 Z " fill="#FFFFFF" transform="translate(555,417)"/>
  </svg>
  <text x="25" y="16" fill="#FFFFFF" font-family="-apple-system,BlinkMacSystemFont,'Segoe UI',sans-serif" font-size="10" font-weight="700">Apply Guy</text>
</svg>
